<svg id="Mobile_login" data-name="Mobile login" xmlns="http://www.w3.org/2000/svg" width="270.157" height="173.13" viewBox="0 0 270.157 173.13">
  <g id="Background_complete" transform="translate(0 0)">
    <g id="Group_916" data-name="Group 916" transform="translate(0 0)">
      <rect id="Rectangle_1051" data-name="Rectangle 1051" width="270.157" height="0.116" transform="translate(0 152.147)" fill="#e6e6e6"/>
      <rect id="Rectangle_1052" data-name="Rectangle 1052" width="16.431" height="0.116" transform="translate(49.834 159.177)" fill="#e6e6e6"/>
      <rect id="Rectangle_1053" data-name="Rectangle 1053" width="9.52" height="0.116" transform="translate(30.774 159.177)" fill="#e6e6e6"/>
      <rect id="Rectangle_1054" data-name="Rectangle 1054" width="9.52" height="0.116" transform="translate(103.732 160.887)" fill="#e6e6e6"/>
      <rect id="Rectangle_1055" data-name="Rectangle 1055" width="21.427" height="0.116" transform="translate(145.608 163.479)" fill="#e6e6e6"/>
      <rect id="Rectangle_1056" data-name="Rectangle 1056" width="3.14" height="0.116" transform="translate(136.405 163.479)" fill="#e6e6e6"/>
      <rect id="Rectangle_1057" data-name="Rectangle 1057" width="46.475" height="0.116" transform="translate(200.538 160.887)" fill="#e6e6e6"/>
      <g id="Group_915" data-name="Group 915" transform="translate(18.956)">
        <path id="Path_960" data-name="Path 960" d="M136.836,186.374H41.043a2.75,2.75,0,0,1-2.833-2.653V57.6a2.75,2.75,0,0,1,2.833-2.653h95.8a2.75,2.75,0,0,1,2.833,2.653V183.721A2.757,2.757,0,0,1,136.836,186.374ZM41.043,55.066A2.63,2.63,0,0,0,38.334,57.6V183.721a2.63,2.63,0,0,0,2.709,2.537h95.8a2.63,2.63,0,0,0,2.709-2.537V57.6a2.63,2.63,0,0,0-2.709-2.537Z" transform="translate(-38.21 -54.95)" fill="#e6e6e6"/>
        <path id="Path_961" data-name="Path 961" d="M353.131,186.374h-95.8a2.75,2.75,0,0,1-2.833-2.653V57.6a2.75,2.75,0,0,1,2.833-2.653h95.8a2.75,2.75,0,0,1,2.833,2.653V183.721A2.75,2.75,0,0,1,353.131,186.374Zm-95.8-131.308a2.63,2.63,0,0,0-2.709,2.537V183.721a2.63,2.63,0,0,0,2.709,2.537h95.8a2.63,2.63,0,0,0,2.709-2.537V57.6a2.63,2.63,0,0,0-2.709-2.537Z" transform="translate(-125.094 -54.95)" fill="#e6e6e6"/>
      </g>
    </g>
    <g id="Group_917" data-name="Group 917" transform="translate(82.577 112.457)">
      <rect id="Rectangle_1058" data-name="Rectangle 1058" width="10.909" height="40.531" transform="translate(47.805)" fill="#e0e0e0"/>
      <path id="Path_962" data-name="Path 962" d="M261.013,377.85h2.074v-5.52H258.84Z" transform="translate(-204.372 -337.319)" fill="#fafafa"/>
      <rect id="Rectangle_1059" data-name="Rectangle 1059" width="10.909" height="40.531" fill="#e0e0e0"/>
      <rect id="Rectangle_1060" data-name="Rectangle 1060" width="49.611" height="37.143" transform="translate(9.104)" fill="#fafafa"/>
      <path id="Path_963" data-name="Path 963" d="M216.843,300.7v9.827H170.829V300.7h46.014m.193-.181h-46.4v10.185h46.4V300.52Z" transform="translate(-159.929 -298.875)" fill="#e0e0e0"/>
      <path id="Path_964" data-name="Path 964" d="M169.474,377.85H167.4v-5.52h4.242Z" transform="translate(-158.296 -337.319)" fill="#fafafa"/>
      <path id="Path_965" data-name="Path 965" d="M215.19,310.3a1.1,1.1,0,1,0,1.1-1.027A1.064,1.064,0,0,0,215.19,310.3Z" transform="translate(-182.377 -303.56)" fill="#e6e6e6"/>
      <path id="Path_966" data-name="Path 966" d="M216.843,326.167v9.827H170.829v-9.827h46.014m.193-.177h-46.4v10.185h46.4V325.99Z" transform="translate(-159.929 -312.511)" fill="#e0e0e0"/>
      <path id="Path_967" data-name="Path 967" d="M215.19,335.767a1.1,1.1,0,1,0,1.1-1.027A1.064,1.064,0,0,0,215.19,335.767Z" transform="translate(-182.377 -317.195)" fill="#e6e6e6"/>
      <path id="Path_968" data-name="Path 968" d="M216.843,351.631v9.827H170.829v-9.827h46.014m.193-.181h-46.4v10.185h46.4V351.45Z" transform="translate(-159.929 -326.141)" fill="#e0e0e0"/>
      <path id="Path_969" data-name="Path 969" d="M215.19,361.237a1.1,1.1,0,1,0,1.1-1.027A1.064,1.064,0,0,0,215.19,361.237Z" transform="translate(-182.377 -330.831)" fill="#e6e6e6"/>
    </g>
    <g id="Group_918" data-name="Group 918" transform="translate(26.512 88.918)">
      <rect id="Rectangle_1061" data-name="Rectangle 1061" width="10.909" height="64.074" transform="translate(40.77)" fill="#e0e0e0"/>
      <path id="Path_970" data-name="Path 970" d="M151.223,377.85H153.3v-5.52H149.05Z" transform="translate(-101.617 -313.781)" fill="#fafafa"/>
      <rect id="Rectangle_1062" data-name="Rectangle 1062" width="10.909" height="64.074" fill="#e0e0e0"/>
      <rect id="Rectangle_1063" data-name="Rectangle 1063" width="42.581" height="60.687" transform="translate(9.099)" fill="#fafafa"/>
      <path id="Path_971" data-name="Path 971" d="M114.158,249.769v13.739H75.248V249.769h38.91m.228-.209H75.02v14.162h39.366V249.56Z" transform="translate(-64.314 -248.055)" fill="#e0e0e0"/>
      <path id="Path_972" data-name="Path 972" d="M134.858,282.934V319.38H116.323V282.934h18.535m.228-.214H116.1v36.869h18.986V282.72Z" transform="translate(-85.014 -265.807)" fill="#e0e0e0"/>
      <path id="Path_973" data-name="Path 973" d="M93.783,282.934V319.38H75.248V282.934H93.783m.223-.214H75.02v36.869H94.006V282.72Z" transform="translate(-64.314 -265.807)" fill="#e0e0e0"/>
      <path id="Path_974" data-name="Path 974" d="M73.854,377.85H71.78v-5.52h4.247Z" transform="translate(-62.681 -313.781)" fill="#fafafa"/>
      <path id="Path_975" data-name="Path 975" d="M112.48,263.617a1.1,1.1,0,1,0,1.1-1.027A1.064,1.064,0,0,0,112.48,263.617Z" transform="translate(-83.19 -255.03)" fill="#e6e6e6"/>
      <path id="Path_976" data-name="Path 976" d="M120.4,319.347a1.1,1.1,0,1,0,1.1-1.027A1.063,1.063,0,0,0,120.4,319.347Z" transform="translate(-87.181 -284.866)" fill="#e6e6e6"/>
      <path id="Path_977" data-name="Path 977" d="M104.57,319.347a1.1,1.1,0,1,0,1.1-1.027A1.064,1.064,0,0,0,104.57,319.347Z" transform="translate(-79.204 -284.866)" fill="#e6e6e6"/>
    </g>
    <path id="Path_978" data-name="Path 978" d="M97,207.87H92.4a42.762,42.762,0,0,1,.8,6.328c0,2.346-3.5,11.537,1.5,11.537s1.5-9.191,1.5-11.537A42.3,42.3,0,0,1,97,207.87Z" transform="translate(-42.205 -136.817)" fill="#e0e0e0"/>
    <path id="Path_979" data-name="Path 979" d="M66.8,228.15v2.8a5.857,5.857,0,0,0,6.023,5.641h2.992a5.857,5.857,0,0,0,6.023-5.641v-2.8Z" transform="translate(-33.66 -147.674)" fill="#f5f5f5"/>
    <path id="Path_980" data-name="Path 980" d="M195.67,284.26c0,3.248,3.885,5.906,8.632,5.906h4.286c4.748,0,8.633-2.658,8.633-5.906Z" transform="translate(-89.124 -177.713)" fill="#e0e0e0"/>
    <g id="Group_920" data-name="Group 920" transform="translate(202.681 44.723)">
      <path id="Path_981" data-name="Path 981" d="M394.064,208.273a43.4,43.4,0,0,0-9.476,10.747,26.6,26.6,0,0,0-4.088,11.7c.015-5.343.03-11.082.05-16.5.66-1.394,2.168-4.609,3.25-7.146,3.612-8.47,4.956-10.552,8.2-17.861,4.331-9.743,8.766-21.308,7.5-20.384-2.59,1.882-12.512,19.283-13.584,21.778a65.911,65.911,0,0,0-5.353,20.839c.02-5.088.04-9.762.059-13.368.065-11.76.278-15.556.382-16.727.4-.595.873-1.287,1.151-1.663,2.332-3.155,3.23-5.845,5.428-10.552,3.11-6.672,5.794-18.516,5.01-17.917-3.264,2.486-5.834,7.834-9.218,14.65s-2.416,10.733-3.086,16.55c-.139,1.143-.248,5.45-.327,11.426-.878-6.366-2.52-10.557-5.522-14.367a42.62,42.62,0,0,0-9.883-9.507c-2.619-1.654,4.525,9.86,7.943,14.887,3.041,4.474,5.844,8.424,7.427,12.313-.084,8.094-.124,18.344-.124,27.888a53.283,53.283,0,0,0-3.77-12.638c-2.054-4.349-5.209-11.021-7.719-13.289-.605-.544,2.629,12.434,4.7,15.886s3.6,6.7,4.9,8.661c.3.455,1.315,2.216,1.89,3.229.005,11.648.07,21.926.179,25.425h.536c-.035-.9-.045-6.83-.03-14.673,1.295-4.256,4.252-9.116,6.7-13.549C389.847,219.271,396.664,206.285,394.064,208.273Z" transform="translate(-363.991 -151.203)" fill="#e0e0e0"/>
      <g id="Group_919" data-name="Group 919" transform="translate(5.576 90.836)">
        <path id="Path_982" data-name="Path 982" d="M395.454,367.764H379.906L378.73,353.49h17.9Z" transform="translate(-376.994 -350.335)" fill="#f0f0f0"/>
        <path id="Path_983" data-name="Path 983" d="M396.022,351.519H375.811l-.581-4.819H396.6Z" transform="translate(-375.23 -346.7)" fill="#f5f5f5"/>
      </g>
    </g>
    <g id="Group_921" data-name="Group 921" transform="translate(33.84 9.548)">
      <rect id="Rectangle_1064" data-name="Rectangle 1064" width="27.807" height="28.599" fill="#e0e0e0"/>
      <rect id="Rectangle_1065" data-name="Rectangle 1065" width="28.725" height="28.599" transform="translate(2.094)" fill="#f5f5f5"/>
      <rect id="Rectangle_1066" data-name="Rectangle 1066" width="24.092" height="23.912" transform="translate(28.414 2.254) rotate(90)" fill="#fff"/>
      <rect id="Rectangle_1067" data-name="Rectangle 1067" width="12.411" height="12.318" transform="translate(22.614 8.09) rotate(90)" fill="#f5f5f5"/>
    </g>
    <g id="Group_923" data-name="Group 923" transform="translate(195.486 12.88)">
      <g id="Group_922" data-name="Group 922">
        <rect id="Rectangle_1068" data-name="Rectangle 1068" width="25.832" height="26.568" fill="#e0e0e0"/>
        <rect id="Rectangle_1069" data-name="Rectangle 1069" width="26.681" height="26.568" transform="translate(1.95)" fill="#f5f5f5"/>
        <rect id="Rectangle_1070" data-name="Rectangle 1070" width="22.382" height="22.211" transform="translate(26.397 2.097) rotate(90)" fill="#fff"/>
      </g>
      <ellipse id="Ellipse_86" data-name="Ellipse 86" cx="6.931" cy="6.491" rx="6.931" ry="6.491" transform="translate(8.359 6.793)" fill="#f5f5f5"/>
    </g>
    <g id="Group_925" data-name="Group 925" transform="translate(76.768 26.601)">
      <g id="Group_924" data-name="Group 924">
        <rect id="Rectangle_1071" data-name="Rectangle 1071" width="20.628" height="21.216" fill="#e0e0e0"/>
        <rect id="Rectangle_1072" data-name="Rectangle 1072" width="21.308" height="21.216" transform="translate(1.553)" fill="#f5f5f5"/>
        <rect id="Rectangle_1073" data-name="Rectangle 1073" width="17.87" height="17.736" transform="translate(21.077 1.672) rotate(90)" fill="#fff"/>
        <path id="Path_984" data-name="Path 984" d="M160.592,125.3l-4.852,7.871h9.7Z" transform="translate(-148.383 -119.213)" fill="#f5f5f5"/>
      </g>
    </g>
  </g>
  <g id="Shadow" transform="translate(27.837 162.61)">
    <ellipse id="Ellipse_87" data-name="Ellipse 87" cx="107.242" cy="5.26" rx="107.242" ry="5.26" fill="#f5f5f5"/>
  </g>
  <g id="Character_2" transform="translate(158.978 19.798)">
    <path id="Path_985" data-name="Path 985" d="M323.653,161.278l-4.922-1.868s-6.494,11.091-8.354,11.653c-2.53.762-7.764,2.881-10.875,3.276a5.02,5.02,0,0,0-1.047,2.435c4.173,1.3,13.34-.427,15.305-1.794C318.231,171.867,323.653,161.278,323.653,161.278Z" transform="translate(-292.855 -130.671)" fill="#e58a7b"/>
    <g id="Group_926" data-name="Group 926" transform="translate(21.73 25.519)">
      <path id="Path_986" data-name="Path 986" d="M341.552,155.054c.918,3.178-4.053,9.562-4.053,9.562l-6.529-3.429s1.216-2.625,2.709-5.3C336.08,151.569,340.505,151.425,341.552,155.054Z" transform="translate(-330.97 -152.479)" fill="#707070"/>
      <path id="Path_987" data-name="Path 987" d="M341.552,155.054c.918,3.178-4.053,9.562-4.053,9.562l-6.529-3.429s1.216-2.625,2.709-5.3C336.08,151.569,340.505,151.425,341.552,155.054Z" transform="translate(-330.97 -152.479)" fill="#707070" opacity="0.2"/>
    </g>
    <path id="Path_988" data-name="Path 988" d="M336.21,167.206l2.565,1.347.447-7.374C337.733,162.253,336.681,165.487,336.21,167.206Z" transform="translate(-311.881 -131.619)" opacity="0.2"/>
    <g id="Group_927" data-name="Group 927" transform="translate(24.986 24.612)">
      <path id="Path_989" data-name="Path 989" d="M340.573,151.612s-5.07,10.566-2.114,30.239h19.978c.318-2.872-.734-16.885,3.071-30.415a53.555,53.555,0,0,0-6.638-.79,78.407,78.407,0,0,0-8.493,0A41.157,41.157,0,0,0,340.573,151.612Z" transform="translate(-337.534 -150.529)"/>
      <path id="Path_990" data-name="Path 990" d="M340.573,151.612s-5.07,10.566-2.114,30.239h19.978c.318-2.872-.734-16.885,3.071-30.415a53.555,53.555,0,0,0-6.638-.79,78.407,78.407,0,0,0-8.493,0A41.157,41.157,0,0,0,340.573,151.612Z" transform="translate(-337.534 -150.529)" opacity="0.2"/>
    </g>
    <path id="Path_991" data-name="Path 991" d="M334.32,416.1c-.03.5,7.546.9,16.917.9s17-.4,17.031-.9-7.541-.9-16.917-.9S334.355,415.6,334.32,416.1Z" transform="translate(-310.928 -267.611)" fill="#e8ecf1"/>
    <path id="Path_1098" data-name="Path 1098" d="M0,0,3.779.081l.18,8.01L.18,8.01Z" transform="translate(33.639 137.237) rotate(-21.07)" fill="#e58a7b"/>
    <path id="Path_992" data-name="Path 992" d="M387.865,400.119h-3.736l-1.369-8.1H386.5Z" transform="translate(-335.337 -255.201)" fill="#e58a7b"/>
    <path id="Path_993" data-name="Path 993" d="M378.941,408.58h4.2a.3.3,0,0,1,.3.237l.541,3.109a.566.566,0,0,1-.585.623c-1.464-.023-2.168-.1-4.014-.1-1.136,0-3.483.111-5.05.111-1.533,0-1.682-1.45-1.032-1.585a10.187,10.187,0,0,0,5.021-2.179A1,1,0,0,1,378.941,408.58Z" transform="translate(-330.387 -264.066)" fill="#263238"/>
    <path id="Path_994" data-name="Path 994" d="M351.9,404.687l3.979-1.083a.313.313,0,0,1,.367.144l1.473,2.788a.527.527,0,0,1-.372.739c-1.439.367-2.411.6-4.217,1.092-1.245.339-2.515.892-3.746,1.259a19.018,19.018,0,0,1-3.894.265c-1.533,0-1.875-1.515-1.221-1.584a6.835,6.835,0,0,0,2.8-.525,12.963,12.963,0,0,0,4.008-2.593A1.936,1.936,0,0,1,351.9,404.687Z" transform="translate(-315.783 -261.396)" fill="#263238"/>
    <path id="Path_995" data-name="Path 995" d="M295.94,189.6l-4.108-1.622-1.692,4.265a17.984,17.984,0,0,0,5.08,0Z" transform="translate(-288.667 -145.966)" fill="#e58a7b"/>
    <path id="Path_996" data-name="Path 996" d="M287.279,187.76l-.109,2.834,1.473,1.533,1.692-4.265Z" transform="translate(-287.17 -145.849)" fill="#e58a7b"/>
    <g id="Group_928" data-name="Group 928" transform="translate(33.651 135.836)">
      <path id="Path_1099" data-name="Path 1099" d="M0,0,3.779.081l.093,4.129L.093,4.129Z" transform="translate(0 1.394) rotate(-21.107)" fill="#cf6f64"/>
      <path id="Path_997" data-name="Path 997" d="M386.5,392.02H382.76l.709,4.177h3.736Z" transform="translate(-368.988 -391.037)" fill="#cf6f64"/>
    </g>
    <path id="Path_998" data-name="Path 998" d="M338.12,190.435c.069.841.159,1.7.263,2.583l14.854-4.516a10.664,10.664,0,0,0,5.715-3.88c.054-1.24.134-2.546.243-3.908.05-.664.114-1.343.179-2.03.069-.716.154-1.445.243-2.184Z" transform="translate(-312.843 -139.82)" opacity="0.2"/>
    <path id="Path_999" data-name="Path 999" d="M347.386,168.892l-.506-.056c.293-2.319,2.143-4.149,4.093-4.107l-.015.478C349.276,165.161,347.649,166.811,347.386,168.892Z" transform="translate(-317.257 -133.518)" fill="#fff"/>
    <path id="Path_1000" data-name="Path 1000" d="M353.144,178.123h-.084l.015-.479c1.707.06,3.309-1.608,3.572-3.685l.506.056C356.865,176.3,355.074,178.123,353.144,178.123Z" transform="translate(-320.371 -138.46)" fill="#fff"/>
    <path id="Path_1001" data-name="Path 1001" d="M362.905,131.5c-.695,2.56-1.523,7.248.283,8.958,0,0-1.26,2.6-6.341,2.6-4.639,0-2.153-2.6-2.153-2.6,3.091-.683,3.145-2.8,2.738-4.786Z" transform="translate(-320.86 -115.729)" fill="#e58a7b"/>
    <path id="Path_1002" data-name="Path 1002" d="M364.13,135.16l-3.24,2.467a7.3,7.3,0,0,1,.174,1.412c.948.883,2.847-1.352,3.041-2.5A3.528,3.528,0,0,0,364.13,135.16Z" transform="translate(-324.317 -117.689)" fill="#cf6f64"/>
    <path id="Path_1003" data-name="Path 1003" d="M349.432,128.731a3.276,3.276,0,0,0,2.1,1.459c1.191.246,1.791-.776,1.463-1.812-.3-.929-1.27-2.179-2.47-1.965A1.531,1.531,0,0,0,349.432,128.731Z" transform="translate(-318.43 -112.993)" fill="#cf6f64"/>
    <path id="Path_1004" data-name="Path 1004" d="M351.929,113.639c-1.855.795-2.51,7.7-.179,8.721S355.441,112.129,351.929,113.639Z" transform="translate(-318.958 -106.092)" fill="#263238"/>
    <path id="Path_1005" data-name="Path 1005" d="M362.107,117.345c-.446,3.466-.516,5.506-2.5,7.281a4.864,4.864,0,0,1-8.111-2.37c-.6-3.113.228-8.257,3.934-9.637C359.085,111.263,362.548,113.879,362.107,117.345Z" transform="translate(-319.496 -105.426)" fill="#e58a7b"/>
    <path id="Path_1006" data-name="Path 1006" d="M353.139,106.9c2.744-.66,4.763-1.106,4.044,1.041-.962,2.858-2.114,5.627-.566,5.757.938.079,5.11-1.58,4.579-3.253-.461-1.459,1.479-1.854,1.836-2.6,1.285-2.681-2.391-2.333-1.737-3.954.635-1.58-2.962-4.247-4.956-2.941-3.23,2.109-8.771,2.082-5.859-1.38,2.088-2.477-1.637-1.97-1.637-1.97s2.252,1.25-1.538,3.183C343.292,102.837,346.968,108.381,353.139,106.9Z" transform="translate(-316.626 -97.558)" fill="#263238"/>
    <path id="Path_1007" data-name="Path 1007" d="M372.2,128.731a3.852,3.852,0,0,1-2.287,1.459c-1.221.246-1.692-.776-1.235-1.812.412-.929,1.543-2.179,2.714-1.965A1.4,1.4,0,0,1,372.2,128.731Z" transform="translate(-328.154 -112.993)" fill="#e58a7b"/>
    <path id="Path_1008" data-name="Path 1008" d="M335.722,217.94s-3.354,28.111-3.617,38.779c-.273,11.1,11.366,45.716,11.366,45.716l5.958-2.342s-6.936-31.628-5.973-42.529c1.052-11.881,5.4-39.625,5.4-39.625Z" transform="translate(-309.81 -162.006)" fill="#707070"/>
    <path id="Path_1009" data-name="Path 1009" d="M354.805,233.253c-2.669,5.195-.873,15.463.576,21.555.551-4.3,1.206-8.963,1.826-13.279C357.147,234.893,356.6,229.768,354.805,233.253Z" transform="translate(-320.559 -169.601)" opacity="0.2"/>
    <path id="Path_1010" data-name="Path 1010" d="M359.133,390.83c.03-.009.7,1.78.7,1.78l-6.866,2.7-1.082-1.887Z" transform="translate(-319.782 -254.564)" fill="#407bff"/>
    <path id="Path_1011" data-name="Path 1011" d="M353.69,217.94s2.565,26.735,4.267,36.748c1.86,10.97,9.178,47.505,9.178,47.505h6.841s-4.1-35.647-4.872-46.511c-.838-11.788-2.515-37.743-2.515-37.743Z" transform="translate(-320.689 -162.006)" fill="#707070"/>
    <path id="Path_1012" data-name="Path 1012" d="M386.829,395.375c.03,0,.229,1.789.229,1.789h-7.521L379,395.11Z" transform="translate(-333.442 -256.855)" fill="#407bff"/>
    <path id="Path_1013" data-name="Path 1013" d="M382.612,302.77a.063.063,0,0,1-.065-.051c-.04-.325-3.735-32.511-4.43-42.264-.755-10.589-2.272-34.063-2.287-34.3a.067.067,0,0,1,.059-.065h.005a.064.064,0,0,1,.065.056c.015.237,1.533,23.711,2.287,34.3.694,9.753,4.39,41.939,4.43,42.259a.059.059,0,0,1-.055.065Z" transform="translate(-331.845 -166.369)" opacity="0.2"/>
    <path id="Path_1014" data-name="Path 1014" d="M360.9,124.7c-.02.283-.194.511-.387.511s-.342-.228-.322-.511.194-.511.387-.511S360.917,124.422,360.9,124.7Z" transform="translate(-323.962 -111.816)" fill="#263238"/>
    <path id="Path_1015" data-name="Path 1015" d="M354.038,124.7c-.02.283-.194.511-.387.511s-.342-.228-.322-.511.193-.511.387-.511S354.057,124.422,354.038,124.7Z" transform="translate(-320.506 -111.816)" fill="#263238"/>
    <path id="Path_1016" data-name="Path 1016" d="M355.3,125.6a10.794,10.794,0,0,1-1.593,2.412,1.8,1.8,0,0,0,1.424.251Z" transform="translate(-320.699 -112.571)" fill="#df5753"/>
    <path id="Path_1017" data-name="Path 1017" d="M357.014,132.637a.082.082,0,0,1-.084-.084.094.094,0,0,1,.094-.084,2.589,2.589,0,0,0,2-.874.093.093,0,0,1,.124-.023.078.078,0,0,1,.02.116A2.762,2.762,0,0,1,357.014,132.637Z" transform="translate(-322.321 -115.761)" fill="#263238"/>
    <path id="Path_1018" data-name="Path 1018" d="M361.15,122.8a.179.179,0,0,1-.154-.014,1.5,1.5,0,0,0-1.265-.125.177.177,0,0,1-.233-.079.173.173,0,0,1,.1-.223,1.836,1.836,0,0,1,1.6.139.156.156,0,0,1,.045.228A.154.154,0,0,1,361.15,122.8Z" transform="translate(-323.609 -110.772)" fill="#263238"/>
    <path id="Path_1019" data-name="Path 1019" d="M351.987,120.466a.145.145,0,0,1-.07-.037.156.156,0,0,1,0-.232,1.931,1.931,0,0,1,1.528-.576.157.157,0,0,1,.139.19.19.19,0,0,1-.209.139h0a1.526,1.526,0,0,0-1.205.469A.2.2,0,0,1,351.987,120.466Z" transform="translate(-319.769 -109.365)" fill="#263238"/>
    <path id="Path_1020" data-name="Path 1020" d="M366.091,160.837l-5.159-1.287s-5.06,11.667-6.847,12.429a108.082,108.082,0,0,0-11.207,6.352,4.558,4.558,0,0,0,.3,2.537c4.45-.757,13.013-3.843,14.8-5.408C362.043,171.886,366.091,160.837,366.091,160.837Z" transform="translate(-315.21 -130.746)" fill="#e58a7b"/>
    <path id="Path_1021" data-name="Path 1021" d="M381.587,408.884a1.169,1.169,0,0,1-.709-.176.448.448,0,0,1-.154-.437.28.28,0,0,1,.164-.232c.422-.2,1.588.493,1.717.576a.073.073,0,0,1,.035.084.088.088,0,0,1-.07.065A5.274,5.274,0,0,1,381.587,408.884Zm-.511-.725a.279.279,0,0,0-.114.019.1.1,0,0,0-.059.1.317.317,0,0,0,.1.3,1.882,1.882,0,0,0,1.32.066A3.415,3.415,0,0,0,381.076,408.159Z" transform="translate(-334.308 -263.757)"/>
    <path id="Path_1022" data-name="Path 1022" d="M383.372,407.806a.1.1,0,0,1-.04-.009c-.372-.2-1.072-.962-.973-1.352a.306.306,0,0,1,.3-.219.489.489,0,0,1,.372.107c.412.33.442,1.343.442,1.385a.078.078,0,0,1-.045.074A.122.122,0,0,1,383.372,407.806Zm-.665-1.417a.112.112,0,0,0-.04,0c-.114.014-.129.065-.134.084-.06.232.377.809.744,1.083a1.818,1.818,0,0,0-.372-1.1A.292.292,0,0,0,382.708,406.389Z" transform="translate(-335.131 -262.805)"/>
    <path id="Path_1023" data-name="Path 1023" d="M354.719,407.791a1.514,1.514,0,0,1-.937,0,.424.424,0,0,1-.243-.353.276.276,0,0,1,.1-.246c.4-.334,2.019.024,2.2.065a.083.083,0,0,1,.01.158A7.639,7.639,0,0,1,354.719,407.791Zm-.809-.553a.407.407,0,0,0-.159.065.106.106,0,0,0-.04.1.291.291,0,0,0,.159.237,2.605,2.605,0,0,0,1.662-.279A5.158,5.158,0,0,0,353.91,407.238Z" transform="translate(-320.612 -263.245)"/>
    <path id="Path_1024" data-name="Path 1024" d="M356.593,406.281a.044.044,0,0,1-.035,0c-.481-.084-1.508-.618-1.518-1.018,0-.093.045-.223.278-.3a.672.672,0,0,1,.511.028c.541.251.819,1.143.833,1.18a.077.077,0,0,1-.02.079A.132.132,0,0,1,356.593,406.281Zm-1.175-1.176-.05.014c-.154.051-.154.111-.154.13.005.242.719.683,1.22.832a1.8,1.8,0,0,0-.695-.939A.485.485,0,0,0,355.417,405.106Z" transform="translate(-321.369 -262.112)"/>
    <path id="Path_1025" data-name="Path 1025" d="M337.915,199.37l-5.174,2.23-.6,1.366,1.91,1.2s3.567-.362,4.584-2.509Z" transform="translate(-309.83 -152.064)" fill="#e58a7b"/>
    <path id="Path_1026" data-name="Path 1026" d="M343.243,201.911a6.454,6.454,0,0,0-.963-2.63l.814-.572a7.1,7.1,0,0,1,1.151,3.043Z" transform="translate(-314.939 -151.711)" fill="#263238"/>
    <path id="Path_1027" data-name="Path 1027" d="M344.11,200.283a.837.837,0,0,1-.6,1.045.934.934,0,0,1-1.211-.362.837.837,0,0,1,.6-1.046A.938.938,0,0,1,344.11,200.283Z" transform="translate(-314.924 -152.317)" fill="#263238"/>
    <path id="Path_1028" data-name="Path 1028" d="M326.3,205.973l.69.65,4.643-1.859-1.836-.595Z" transform="translate(-306.887 -154.634)" fill="#e58a7b"/>
    <path id="Path_1029" data-name="Path 1029" d="M359.133,390.83c.03-.009.7,1.78.7,1.78l-6.866,2.7-1.082-1.887Z" transform="translate(-319.782 -254.564)" fill="#707070"/>
    <path id="Path_1030" data-name="Path 1030" d="M386.829,395.375c.03,0,.229,1.789.229,1.789h-7.521L379,395.11Z" transform="translate(-333.442 -256.855)" fill="#707070"/>
    <g id="Group_929" data-name="Group 929" transform="translate(40.909 25.446)">
      <path id="Path_1031" data-name="Path 1031" d="M380.946,155.63c1.364,4.121-3.949,9.748-3.949,9.748l-7.367-2.816a68.061,68.061,0,0,1,3.011-7C374.889,151,379.567,151.471,380.946,155.63Z" transform="translate(-369.63 -152.323)" fill="#707070"/>
      <path id="Path_1032" data-name="Path 1032" d="M380.946,155.63c1.364,4.121-3.949,9.748-3.949,9.748l-7.367-2.816a68.061,68.061,0,0,1,3.011-7C374.889,151,379.567,151.471,380.946,155.63Z" transform="translate(-369.63 -152.323)" fill="#707070" opacity="0.2"/>
    </g>
  </g>
  <g id="Screen" transform="translate(105.661 7.258)">
    <rect id="Rectangle_1076" data-name="Rectangle 1076" width="3.17" height="0.479" transform="translate(24.265 0)"/>
    <path id="Path_1102" data-name="Path 1102" d="M0,0,7.984.024V.535L0,.511Z" transform="translate(68.089 26.911) rotate(-87.421)"/>
    <path id="Path_1033" data-name="Path 1033" d="M260.618,75.19H202.077L196.63,189.362h58.541Z" transform="translate(-193.132 -73.043)"/>
    <path id="Path_1034" data-name="Path 1034" d="M257.1,78.57H198.557L193.11,192.737h58.541Z" transform="translate(-191.359 -74.853)" fill="#fafafa" opacity="0.56"/>
    <path id="Path_1035" data-name="Path 1035" d="M253.573,81.94H195.032L189.58,196.112h58.541Z" transform="translate(-189.58 -76.657)" fill="#707070"/>
    <path id="Path_1036" data-name="Path 1036" d="M253.965,189.11H204l-.417,8.735h49.968Z" transform="translate(-196.634 -134.031)" fill="#fff"/>
    <path id="Path_1037" data-name="Path 1037" d="M232.02,175.39H204.844l-.184,3.908h27.177Z" transform="translate(-197.179 -126.686)"/>
    <path id="Path_1038" data-name="Path 1038" d="M251.695,239.85H201.727l-.417,8.74h49.968Z" transform="translate(-195.491 -161.196)" fill="#fff"/>
    <path id="Path_1039" data-name="Path 1039" d="M249.763,284.04h-33.6l-.5,10.468h33.6Z" transform="translate(-202.721 -184.853)" opacity="0.47"/>
    <path id="Path_1040" data-name="Path 1040" d="M245.681,297.875h-33.6a.057.057,0,0,1-.059-.06l.5-10.473a.058.058,0,0,1,.06-.051h33.6a.057.057,0,0,1,.059.06l-.5,10.473A.062.062,0,0,1,245.681,297.875Zm-33.542-.112h33.482l.5-10.362H212.635Z" transform="translate(-200.887 -186.593)" fill="#fff"/>
    <path id="Path_1041" data-name="Path 1041" d="M225.008,226.13H202.574l-.184,3.912h22.429Z" transform="translate(-196.035 -153.85)"/>
    <path id="Path_1042" data-name="Path 1042" d="M257.288,114.664a11.834,11.834,0,0,1-2.758,6.993,13.67,13.67,0,0,1-10.518,4.907,12.293,12.293,0,0,1-10.041-4.907,10.882,10.882,0,0,1-2.094-6.993c.313-6.575,6.256-11.9,13.271-11.9S257.6,108.089,257.288,114.664Z" transform="translate(-210.887 -87.803)" fill="#fff"/>
    <path id="Path_1043" data-name="Path 1043" d="M278.658,104.474a3.148,3.148,0,0,1-.734,1.858,3.632,3.632,0,0,1-2.793,1.306,3.275,3.275,0,0,1-2.669-1.306,2.872,2.872,0,0,1-.555-1.858,3.471,3.471,0,0,1,3.527-3.164A3.1,3.1,0,0,1,278.658,104.474Z" transform="translate(-231.061 -87.027)" fill="#afb5b8"/>
    <path id="Path_1044" data-name="Path 1044" d="M212.23,196.9a1.534,1.534,0,0,1-1.563,1.4,1.372,1.372,0,0,1-1.429-1.4,1.534,1.534,0,0,1,1.563-1.4A1.37,1.37,0,0,1,212.23,196.9Z" transform="translate(-199.485 -137.452)" fill="#263238"/>
    <path id="Path_1045" data-name="Path 1045" d="M225.71,196.9a1.534,1.534,0,0,1-1.563,1.4,1.372,1.372,0,0,1-1.429-1.4,1.534,1.534,0,0,1,1.563-1.4A1.364,1.364,0,0,1,225.71,196.9Z" transform="translate(-206.277 -137.452)" fill="#263238"/>
    <path id="Path_1046" data-name="Path 1046" d="M239.2,196.9a1.534,1.534,0,0,1-1.563,1.4,1.372,1.372,0,0,1-1.429-1.4,1.534,1.534,0,0,1,1.563-1.4A1.367,1.367,0,0,1,239.2,196.9Z" transform="translate(-213.075 -137.452)" fill="#263238"/>
    <path id="Path_1047" data-name="Path 1047" d="M209.96,247.639a1.534,1.534,0,0,1-1.563,1.4,1.373,1.373,0,0,1-1.429-1.4,1.534,1.534,0,0,1,1.563-1.4A1.372,1.372,0,0,1,209.96,247.639Z" transform="translate(-198.341 -164.616)" fill="#263238"/>
    <path id="Path_1048" data-name="Path 1048" d="M223.44,247.639a1.534,1.534,0,0,1-1.563,1.4,1.372,1.372,0,0,1-1.429-1.4,1.534,1.534,0,0,1,1.563-1.4A1.367,1.367,0,0,1,223.44,247.639Z" transform="translate(-205.134 -164.616)" fill="#263238"/>
    <path id="Path_1049" data-name="Path 1049" d="M236.93,247.639a1.534,1.534,0,0,1-1.563,1.4,1.372,1.372,0,0,1-1.429-1.4,1.534,1.534,0,0,1,1.563-1.4A1.367,1.367,0,0,1,236.93,247.639Z" transform="translate(-211.931 -164.616)" fill="#263238"/>
    <path id="Path_1050" data-name="Path 1050" d="M250.42,247.639a1.534,1.534,0,0,1-1.563,1.4,1.372,1.372,0,0,1-1.429-1.4,1.534,1.534,0,0,1,1.563-1.4A1.373,1.373,0,0,1,250.42,247.639Z" transform="translate(-218.729 -164.616)" fill="#263238"/>
    <path id="Path_1051" data-name="Path 1051" d="M263.91,247.639a1.534,1.534,0,0,1-1.563,1.4,1.373,1.373,0,0,1-1.429-1.4,1.535,1.535,0,0,1,1.563-1.4A1.372,1.372,0,0,1,263.91,247.639Z" transform="translate(-225.526 -164.616)" fill="#263238"/>
    <g id="Group_930" data-name="Group 930" transform="translate(23.079 15.841)">
      <path id="Path_1100" data-name="Path 1100" d="M4.939,0a5.4,5.4,0,0,1,5.255,5.029,4.607,4.607,0,0,1-4.936,4.7A5.4,5.4,0,0,1,0,4.7,4.607,4.607,0,0,1,4.939,0Z" transform="translate(3.753 7.128) rotate(-44.356)"/>
      <path id="Path_1052" data-name="Path 1052" d="M256.659,139.158a13.67,13.67,0,0,1-10.517,4.907,12.292,12.292,0,0,1-10.041-4.907,15.49,15.49,0,0,1,10.453-3.708C250.785,135.45,254.461,136.909,256.659,139.158Z" transform="translate(-236.1 -121.145)"/>
      <path id="Path_1101" data-name="Path 1101" d="M4.939,0a5.4,5.4,0,0,1,5.255,5.029,4.607,4.607,0,0,1-4.936,4.7A5.4,5.4,0,0,1,0,4.7,4.607,4.607,0,0,1,4.939,0Z" transform="translate(3.753 7.128) rotate(-44.356)" opacity="0.1"/>
      <path id="Path_1053" data-name="Path 1053" d="M256.659,139.158a13.67,13.67,0,0,1-10.517,4.907,12.292,12.292,0,0,1-10.041-4.907,15.49,15.49,0,0,1,10.453-3.708C250.785,135.45,254.461,136.909,256.659,139.158Z" transform="translate(-236.1 -121.145)" opacity="0.1"/>
    </g>
  </g>
  <g id="Character_1" transform="translate(59.812 47.819)">
    <path id="Path_1054" data-name="Path 1054" d="M122.171,210.545c-.471.967-.962,2.026-1.4,3.062s-.873,2.091-1.255,3.155a37.552,37.552,0,0,0-1.771,6.412l-.114.683a1.059,1.059,0,0,0,.035.348,3.425,3.425,0,0,0,.546,1.078,13.787,13.787,0,0,0,2.2,2.314,34.063,34.063,0,0,0,2.739,2.147c.952.688,1.955,1.357,2.937,1.984l-.923,1.631a35.837,35.837,0,0,1-6.688-3.573,15.69,15.69,0,0,1-3-2.639,6.523,6.523,0,0,1-1.186-1.984,4.239,4.239,0,0,1-.238-1.366c0-.116.01-.274.02-.353l.025-.232.05-.46a33.978,33.978,0,0,1,1.622-7.128c.387-1.148.8-2.281,1.27-3.4s.957-2.2,1.558-3.327Z" transform="translate(-111.431 -185.188)" fill="#e58a7b"/>
    <path id="Path_1055" data-name="Path 1055" d="M135.968,255.513l3.507-1.663-.908,3.61s-2.406.632-3.527-.465Z" transform="translate(-122.002 -209.252)" fill="#e58a7b"/>
    <path id="Path_1056" data-name="Path 1056" d="M146.268,254.44l-.933,2.983-3.185.032.908-3.606Z" transform="translate(-125.585 -209.252)" fill="#e58a7b"/>
    <path id="Path_1057" data-name="Path 1057" d="M160.43,175a8.885,8.885,0,0,0,.784,1.835.841.841,0,0,1-.784.237Z" transform="translate(-134.796 -167.039)" fill="#df5753"/>
    <ellipse id="Ellipse_90" data-name="Ellipse 90" cx="0.372" cy="0.534" rx="0.372" ry="0.534" transform="translate(25.158 6.92)" fill="#263238"/>
    <path id="Path_1058" data-name="Path 1058" d="M160.04,172.565l.754-.2S160.407,172.913,160.04,172.565Z" transform="translate(-134.6 -165.625)" fill="#263238"/>
    <path id="Path_1059" data-name="Path 1059" d="M140.179,182.34c.452,2.165.9,6.129-.709,7.569,0,0,.63,2.193,4.921,2.193,4.718,0,2.257-2.193,2.257-2.193-2.575-.576-2.51-2.365-2.059-4.047Z" transform="translate(-124.235 -170.968)" fill="#e58a7b"/>
    <path id="Path_1060" data-name="Path 1060" d="M138.36,165.631c.238,3.61.253,5.144,2.2,7,2.927,2.788,7.615,1.724,8.533-1.877.829-3.243.3-8.605-3.473-10.041A5.215,5.215,0,0,0,138.36,165.631Z" transform="translate(-123.67 -159.185)" fill="#e58a7b"/>
    <path id="Path_1061" data-name="Path 1061" d="M135,162.756c-1.935.66-4.515.167-3.5,5.757,1.072,5.92-.575,7.867-.575,7.867a42.011,42.011,0,0,0,14.829-.088s-2.287-3.745-1.647-6.477c.819-3.485.169-4.776.169-4.776S137.717,161.826,135,162.756Z" transform="translate(-119.926 -160.393)" fill="#263238"/>
    <path id="Path_1062" data-name="Path 1062" d="M155.64,174.626a3.466,3.466,0,0,0,.605,1.938c.521.753,1.141.446,1.3-.334a2.659,2.659,0,0,0-.635-2.426C156.255,173.33,155.65,173.808,155.64,174.626Z" transform="translate(-132.382 -166.298)" fill="#e58a7b"/>
    <path id="Path_1063" data-name="Path 1063" d="M135.676,160.86c-.556-1.459,2.094-3.708,7.7-2.774s5.849,5.3,5.849,5.3l-1.136-1.259.049,1.329-5.76,1.036Z" transform="translate(-122.286 -157.866)" fill="#263238"/>
    <g id="Group_931" data-name="Group 931" transform="translate(13.854 17.622)">
      <path id="Path_1064" data-name="Path 1064" d="M136.7,197.357h0a.821.821,0,0,1,.719-.938,36.521,36.521,0,0,1,7.71-.558c1.483.19,1.875,1,1.94,1.668a.844.844,0,0,1-.913.883l-8.627-.367A.865.865,0,0,1,136.7,197.357Z" transform="translate(-136.686 -195.793)" fill="#707070"/>
      <path id="Path_1065" data-name="Path 1065" d="M136.7,197.357h0a.821.821,0,0,1,.719-.938,36.521,36.521,0,0,1,7.71-.558c1.483.19,1.875,1,1.94,1.668a.844.844,0,0,1-.913.883l-8.627-.367A.865.865,0,0,1,136.7,197.357Z" transform="translate(-136.686 -195.793)" fill="#707070" opacity="0.6"/>
    </g>
    <path id="Path_1066" data-name="Path 1066" d="M146.76,366.033l3.2,2.082,5.353-6.8-3.2-2.077Z" transform="translate(-127.908 -265.673)" fill="#e58a7b"/>
    <path id="Path_1067" data-name="Path 1067" d="M131.72,365.288l3.379,1.8,4.738-7.188-3.378-1.8Z" transform="translate(-120.329 -265.063)" fill="#e58a7b"/>
    <g id="Group_932" data-name="Group 932" transform="translate(13.683 93.037)">
      <path id="Path_1068" data-name="Path 1068" d="M157.938,361.317l-2.758,3.5-3.2-2.077,2.763-3.5Z" transform="translate(-144.221 -358.71)" fill="#cf6f64"/>
      <path id="Path_1069" data-name="Path 1069" d="M138.781,358.1l3.383,1.808-2.441,3.7L136.34,361.8Z" transform="translate(-136.34 -358.1)" fill="#cf6f64"/>
    </g>
    <g id="Group_933" data-name="Group 933" transform="translate(9.057 41.875)">
      <path id="Path_1070" data-name="Path 1070" d="M139.51,247.99S152,262.738,149.66,276.835c-1.9,11.388-12.854,26.81-12.854,26.81l-5.155-2.4a152.387,152.387,0,0,0,9.277-21.114,14.777,14.777,0,0,0-2-13.521c-6.33-8.656-16.466-3.508-9.644-18.623Z" transform="translate(-127.016 -247.99)"/>
      <path id="Path_1071" data-name="Path 1071" d="M139.51,247.99S152,262.738,149.66,276.835c-1.9,11.388-12.854,26.81-12.854,26.81l-5.155-2.4a152.387,152.387,0,0,0,9.277-21.114,14.777,14.777,0,0,0-2-13.521c-6.33-8.656-16.466-3.508-9.644-18.623Z" transform="translate(-127.016 -247.99)" opacity="0.6"/>
    </g>
    <path id="Path_1072" data-name="Path 1072" d="M162.706,266.431l-1.816-1.691c0,.135,3.517,20.468,4.5,26.183a32.779,32.779,0,0,0,1.329-5.125C167.875,278.9,165.464,271.835,162.706,266.431Z" transform="translate(-135.028 -215.082)" fill="#707070" opacity="0.4"/>
    <g id="Group_934" data-name="Group 934" transform="translate(12.492 41.875)">
      <path id="Path_1073" data-name="Path 1073" d="M148.575,247.99s15.042,18.53,15.464,29.639c.352,9.312-16.387,27.3-16.387,27.3l-4.862-2.946s9.788-12.787,12.254-23.237c-.938-10.347-21.1-30.754-21.1-30.754Z" transform="translate(-133.94 -247.99)"/>
      <path id="Path_1074" data-name="Path 1074" d="M148.575,247.99s15.042,18.53,15.464,29.639c.352,9.312-16.387,27.3-16.387,27.3l-4.862-2.946s9.788-12.787,12.254-23.237c-.938-10.347-21.1-30.754-21.1-30.754Z" transform="translate(-133.94 -247.99)" opacity="0.6"/>
    </g>
    <path id="Path_1075" data-name="Path 1075" d="M122.73,200.336c-1.612.358-3.15,5.831-3.15,5.831l6.281,3.926s2.094-4.331,1.364-6.226C126.466,201.9,124.764,199.886,122.73,200.336Z" transform="translate(-114.212 -180.569)" fill="#707070"/>
    <path id="Path_1076" data-name="Path 1076" d="M127.967,207.99l-.437,4.772,2.337,1.468a18.745,18.745,0,0,0,1.424-4.247Z" transform="translate(-118.218 -184.7)" opacity="0.2"/>
    <path id="Path_1077" data-name="Path 1077" d="M146.4,199.423s1.855.613-1.86,22H128.733c.263-6.026.273-9.739-2.8-22.108a49.756,49.756,0,0,1,6.712-.827,53.6,53.6,0,0,1,7.179,0C142.907,198.754,146.4,199.423,146.4,199.423Z" transform="translate(-117.412 -179.549)"/>
    <path id="Path_1078" data-name="Path 1078" d="M166.585,206.215c.357.929.739,1.928,1.131,2.895s.774,1.951,1.176,2.923l1.215,2.918.308.73.154.363.079.181c.015.033.01.028.005.028a1,1,0,0,0-.347-.288,1.426,1.426,0,0,0-.65-.177,1.324,1.324,0,0,0-.551.093c-.223.1-.228.144-.223.135a.458.458,0,0,0,.109-.107,6.586,6.586,0,0,0,.709-1.083c.233-.427.456-.883.68-1.343.437-.925.838-1.891,1.245-2.862s.779-1.956,1.156-2.946l1.131-2.964,1.91.451c-.377,2.123-.868,4.2-1.449,6.282-.283,1.045-.615,2.081-.992,3.127-.189.525-.4,1.046-.64,1.58a9.828,9.828,0,0,1-.943,1.682,3.864,3.864,0,0,1-.432.5,2.818,2.818,0,0,1-.9.6,2.372,2.372,0,0,1-.962.167,2.294,2.294,0,0,1-1.047-.3,2.534,2.534,0,0,1-.9-.878c-.074-.116-.139-.242-.184-.325l-.094-.181-.188-.362-.377-.72c-.491-.966-.972-1.938-1.424-2.922s-.888-1.975-1.315-2.974c-.407-1.013-.809-1.993-1.171-3.071Z" transform="translate(-135.99 -182.944)" fill="#e58a7b"/>
    <path id="Path_1079" data-name="Path 1079" d="M162.488,200.48c1.9.423,4.033,5.683,4.033,5.683l-5.646,4.507s-3.661-5.734-2.917-7.625C158.728,201.07,160.008,199.927,162.488,200.48Z" transform="translate(-133.5 -180.605)" fill="#707070"/>
    <path id="Path_1080" data-name="Path 1080" d="M186.04,199.4l1.98-1.552,1.379,2.012-1.017,1.682s-1.617,1.385-3.051.683h0A2.318,2.318,0,0,1,186.04,199.4Z" transform="translate(-147.235 -179.272)" fill="#e58a7b"/>
    <path id="Path_1081" data-name="Path 1081" d="M194.567,197.855l-.149.506-3.141.493-.308-1Z" transform="translate(-150.185 -179.272)" fill="#e58a7b"/>
    <path id="Path_1082" data-name="Path 1082" d="M156.645,365.193l-5.665-3.429L152,360.11l6.365,3.666Z" transform="translate(-130.034 -266.139)"/>
    <path id="Path_1083" data-name="Path 1083" d="M141.508,375.941a3.59,3.59,0,0,1-1.4-.455.079.079,0,0,1-.045-.083.093.093,0,0,1,.065-.074c.154-.046,1.5-.432,1.875-.13a.276.276,0,0,1,.1.279.5.5,0,0,1-.278.4A.754.754,0,0,1,141.508,375.941Zm-1.116-.511a1.959,1.959,0,0,0,1.349.293.323.323,0,0,0,.179-.269c.01-.074-.015-.107-.045-.126C141.681,375.17,140.937,375.291,140.391,375.43Z" transform="translate(-124.531 -274.155)" fill="#263238"/>
    <path id="Path_1084" data-name="Path 1084" d="M140.158,374.307a.082.082,0,0,1-.064-.028.091.091,0,0,1-.025-.084c.015-.042.323-1.05.834-1.282a.516.516,0,0,1,.407-.014.3.3,0,0,1,.228.311c-.035.418-.943.994-1.359,1.092A.03.03,0,0,1,140.158,374.307Zm.962-1.269a.318.318,0,0,0-.139.033c-.3.134-.561.683-.68,1.013.437-.172,1.032-.627,1.052-.883,0-.042,0-.093-.114-.139A.385.385,0,0,0,141.12,373.039Z" transform="translate(-124.535 -272.967)" fill="#263238"/>
    <path id="Path_1085" data-name="Path 1085" d="M155.449,379.831c-.561,0-1.34-.674-1.766-1.087a.074.074,0,0,1-.015-.1.1.1,0,0,1,.094-.047c.2.023,1.92.242,2.168.7a.271.271,0,0,1-.01.274.508.508,0,0,1-.392.256C155.5,379.826,155.474,379.831,155.449,379.831Zm-1.439-1.022c.625.572,1.176.887,1.488.846a.328.328,0,0,0,.253-.172.094.094,0,0,0,0-.107C155.628,379.124,154.71,378.911,154.01,378.808Z" transform="translate(-131.383 -276.037)" fill="#263238"/>
    <path id="Path_1086" data-name="Path 1086" d="M154.067,377.851a2.242,2.242,0,0,1-.332-.023.093.093,0,0,1-.069-.056.086.086,0,0,1,.015-.084,2.6,2.6,0,0,1,1.335-.841.724.724,0,0,1,.511.149c.193.158.183.3.134.386C155.506,377.693,154.647,377.851,154.067,377.851Zm-.129-.172c.556.028,1.439-.144,1.558-.372.01-.019.04-.074-.089-.181a.534.534,0,0,0-.372-.112A2.224,2.224,0,0,0,153.938,377.679Z" transform="translate(-131.385 -275.099)" fill="#263238"/>
    <path id="Path_1087" data-name="Path 1087" d="M134.379,373.621l-4.207-1.115a.315.315,0,0,0-.372.163l-1.419,2.993a.575.575,0,0,0,.412.78c1.473.367,2.208.469,4.058.962,1.136.3,2.768.85,4.341,1.268,1.538.409,2.094-1.018,1.478-1.324A7.371,7.371,0,0,1,134.939,374,1.023,1.023,0,0,0,134.379,373.621Z" transform="translate(-118.622 -272.769)"/>
    <path id="Path_1088" data-name="Path 1088" d="M147.3,374.985l-3.592-2.337a.326.326,0,0,0-.407.037l-2.381,2.4a.559.559,0,0,0,.119.864c1.265.794,1.92,1.12,3.5,2.147.972.632,2.912,2.035,4.252,2.9,1.315.855,2.337-.325,1.86-.8a9.715,9.715,0,0,1-2.952-4.684A.973.973,0,0,0,147.3,374.985Z" transform="translate(-124.889 -272.822)"/>
    <path id="Path_1089" data-name="Path 1089" d="M141.494,363.07l-6.474-3.016.67-1.645,6.916,3.178Z" transform="translate(-121.992 -265.229)"/>
    <g id="Group_935" data-name="Group 935" transform="translate(10.525 40.899)">
      <path id="Path_1090" data-name="Path 1090" d="M130.533,246l-.546,1.324c-.055.1.074.209.258.209h16.411c.144,0,.263-.065.268-.149l.144-1.324c.01-.093-.114-.167-.268-.167H130.791A.294.294,0,0,0,130.533,246Z" transform="translate(-129.975 -245.889)" fill="#707070"/>
      <path id="Path_1091" data-name="Path 1091" d="M130.533,246l-.546,1.324c-.055.1.074.209.258.209h16.411c.144,0,.263-.065.268-.149l.144-1.324c.01-.093-.114-.167-.268-.167H130.791A.294.294,0,0,0,130.533,246Z" transform="translate(-129.975 -245.889)" fill="#707070" opacity="0.4"/>
    </g>
    <g id="Group_936" data-name="Group 936" transform="translate(13.097 40.774)">
      <path id="Path_1092" data-name="Path 1092" d="M135.73,247.53H135.3c-.084,0-.149-.042-.144-.093l.2-1.724c.005-.051.079-.093.164-.093h.427c.084,0,.149.042.144.093l-.2,1.724C135.889,247.488,135.815,247.53,135.73,247.53Z" transform="translate(-135.16 -245.62)" fill="#afb5b8"/>
      <path id="Path_1093" data-name="Path 1093" d="M156.13,247.53H155.7c-.084,0-.149-.042-.144-.093l.2-1.724c0-.051.079-.093.164-.093h.427c.084,0,.149.042.144.093l-.2,1.724C156.294,247.488,156.22,247.53,156.13,247.53Z" transform="translate(-145.439 -245.62)" fill="#afb5b8"/>
    </g>
    <g id="Group_940" data-name="Group 940" transform="translate(0 54.109)">
      <g id="Group_937" data-name="Group 937" transform="translate(0 4.628)">
        <ellipse id="Ellipse_91" data-name="Ellipse 91" cx="13.291" cy="0.901" rx="13.291" ry="0.901" transform="translate(0 60.831)" fill="#f5f5f5"/>
        <path id="Path_1094" data-name="Path 1094" d="M134.918,344.739a33.947,33.947,0,0,1-6.539-2.337c-.045-.023-.089-.042-.139-.065v-9.958h4.728a1.327,1.327,0,1,0,0-2.648H128.24V284.28h-2.833v45.451h-4.728a1.327,1.327,0,1,0,0,2.648h4.728v9.958c-.045.023-.094.042-.139.065a33.449,33.449,0,0,1-6.539,2.337.646.646,0,0,0,.193,1.273h15.8A.646.646,0,0,0,134.918,344.739Z" transform="translate(-113.531 -284.28)" fill="#e0e0e0"/>
      </g>
      <g id="Group_939" data-name="Group 939" transform="translate(1.905)">
        <path id="Path_1095" data-name="Path 1095" d="M132.811,284.045H115.17a2.5,2.5,0,0,1-2.57-2.407v-4.911a2.5,2.5,0,0,1,2.57-2.407h17.642a2.5,2.5,0,0,1,2.57,2.407v4.911A2.5,2.5,0,0,1,132.811,284.045Z" transform="translate(-112.6 -274.32)" fill="#707070"/>
        <g id="Group_938" data-name="Group 938" transform="translate(2.406 9.725)">
          <path id="Path_1096" data-name="Path 1096" d="M117.45,295.25v.846c0,.7.809,1.268,1.8,1.268h14.367c.992,0,1.8-.571,1.8-1.268v-.846Z" transform="translate(-117.45 -295.25)" fill="#858381"/>
          <path id="Path_1097" data-name="Path 1097" d="M117.45,295.25v.846c0,.7.809,1.268,1.8,1.268h14.367c.992,0,1.8-.571,1.8-1.268v-.846Z" transform="translate(-117.45 -295.25)" fill="#858381" opacity="0.3"/>
        </g>
      </g>
    </g>
  </g>
</svg>
